<?xml version="1.0" encoding="UTF-8"?>
<!DOCTYPE svg PUBLIC "-//W3C//DTD SVG 1.1//EN" "http://www.w3.org/Graphics/SVG/1.1/DTD/svg11.dtd">
<svg xmlns="http://www.w3.org/2000/svg" version="1.1" width="500px" height="500px" style="shape-rendering:geometricPrecision; text-rendering:geometricPrecision; image-rendering:optimizeQuality; fill-rule:evenodd; clip-rule:evenodd" xmlns:xlink="http://www.w3.org/1999/xlink">
<g><path style="opacity:0.004" fill="#fefffe" d="M 1.5,10.5 C 2.83333,11.1667 2.83333,11.1667 1.5,10.5 Z"/></g>
<g><path style="opacity:0.004" fill="#fefffe" d="M 287.5,14.5 C 288.833,15.1667 288.833,15.1667 287.5,14.5 Z"/></g>
<g><path style="opacity:0.004" fill="#fefffe" d="M 393.5,19.5 C 394.833,20.1667 394.833,20.1667 393.5,19.5 Z"/></g>
<g><path style="opacity:0.067" fill="#d8d5d1" d="M 257.5,33.5 C 252.167,33.5 246.833,33.5 241.5,33.5C 246.567,32.8118 251.733,32.1451 257,31.5C 257.464,32.0944 257.631,32.7611 257.5,33.5 Z"/></g>
<g><path style="opacity:0.004" fill="#fefffe" d="M 304.5,37.5 C 305.833,38.1667 305.833,38.1667 304.5,37.5 Z"/></g>
<g><path style="opacity:0.004" fill="#fefffe" d="M 199.5,52.5 C 198.833,51.1667 198.833,51.1667 199.5,52.5 Z"/></g>
<g><path style="opacity:1" fill="#272422" d="M 241.5,33.5 C 246.833,33.5 252.167,33.5 257.5,33.5C 269.508,34.507 280.508,38.3403 290.5,45C 294,47.3342 297,50.1675 299.5,53.5C 298.21,54.0577 297.377,55.0577 297,56.5C 294.888,52.8729 293.221,52.8729 292,56.5C 291.086,55.3463 290.253,55.513 289.5,57C 292.321,58.6213 292.987,60.788 291.5,63.5C 281.078,49.3135 266.911,42.3135 249,42.5C 229.512,42.5414 213.845,50.2081 202,65.5C 196.198,75.0401 193.698,85.3734 194.5,96.5C 193.546,91.1876 192.546,85.1876 191.5,78.5C 189.508,78.6715 187.842,78.0049 186.5,76.5C 183.867,77.7822 183.867,79.1156 186.5,80.5C 185.234,81.3624 183.901,82.0291 182.5,82.5C 183.047,79.2976 184.047,76.2976 185.5,73.5C 186.906,73.0269 187.573,72.0269 187.5,70.5C 188.498,66.4945 190.498,63.1612 193.5,60.5C 194.906,60.0269 195.573,59.0269 195.5,57.5C 196.833,55.8333 198.167,54.1667 199.5,52.5C 211.392,41.6322 225.392,35.2989 241.5,33.5 Z"/></g>
<g><path style="opacity:0.435" fill="#9b9895" d="M 195.5,57.5 C 195.573,59.0269 194.906,60.0269 193.5,60.5C 193.427,58.9731 194.094,57.9731 195.5,57.5 Z"/></g>
<g><path style="opacity:0.004" fill="#fefffe" d="M 404.5,60.5 C 405.833,61.1667 405.833,61.1667 404.5,60.5 Z"/></g>
<g><path style="opacity:0.004" fill="#fefffe" d="M 92.5,61.5 C 93.8333,62.1667 93.8333,62.1667 92.5,61.5 Z"/></g>
<g><path style="opacity:1" fill="#1c1a18" d="M 299.5,53.5 C 305.302,58.4362 309.635,64.4362 312.5,71.5C 312.343,72.8734 312.51,74.2068 313,75.5C 313.876,77.7582 315.043,79.7582 316.5,81.5C 318.737,87.0285 320.903,92.6952 323,98.5C 328.732,104.725 334.232,111.058 339.5,117.5C 339.427,119.027 340.094,120.027 341.5,120.5C 343.293,122.426 344.293,124.759 344.5,127.5C 345.22,133.138 345.553,138.804 345.5,144.5C 344.999,150.505 342.499,155.505 338,159.5C 338.33,165.569 338.164,171.569 337.5,177.5C 336.732,178.263 336.232,179.263 336,180.5C 335.261,178.779 334.427,177.113 333.5,175.5C 333.034,177.705 333.034,179.705 333.5,181.5C 332.23,180.438 331.063,179.438 330,178.5C 329.667,178.833 329.333,179.167 329,179.5C 328.333,178.5 328.333,177.5 329,176.5C 329.718,177.451 330.551,177.617 331.5,177C 330.418,175.67 329.751,174.17 329.5,172.5C 329.799,170.396 329.466,168.396 328.5,166.5C 317.499,170.764 306.666,170.431 296,165.5C 295.617,166.056 295.117,166.389 294.5,166.5C 293.533,167.806 292.199,168.473 290.5,168.5C 290.688,170.103 290.188,171.437 289,172.5C 287.477,170.431 286.643,168.097 286.5,165.5C 287.351,161.435 288.517,157.435 290,153.5C 293.306,151.968 296.806,150.801 300.5,150C 303.708,147.229 305.708,143.729 306.5,139.5C 305.527,137.36 304.027,135.693 302,134.5C 299.684,135.367 297.684,134.701 296,132.5C 293.685,129.223 292.351,125.556 292,121.5C 292.692,108.983 293.858,96.4825 295.5,84C 295.554,78.7227 294.887,73.556 293.5,68.5C 293.771,66.6203 293.104,65.287 291.5,64.5C 291.5,64.1667 291.5,63.8333 291.5,63.5C 292.987,60.788 292.321,58.6213 289.5,57C 290.253,55.513 291.086,55.3463 292,56.5C 293.221,52.8729 294.888,52.8729 297,56.5C 297.377,55.0577 298.21,54.0577 299.5,53.5 Z"/></g>
<g><path style="opacity:0.004" fill="#fefffe" d="M 448.5,63.5 C 449.833,64.1667 449.833,64.1667 448.5,63.5 Z"/></g>
<g><path style="opacity:0.141" fill="#b0abaa" d="M 291.5,64.5 C 293.104,65.287 293.771,66.6203 293.5,68.5C 292.326,67.4863 291.66,66.153 291.5,64.5 Z"/></g>
<g><path style="opacity:0.004" fill="#fefffe" d="M 426.5,69.5 C 427.833,70.1667 427.833,70.1667 426.5,69.5 Z"/></g>
<g><path style="opacity:0.09" fill="#c3bbb9" d="M 187.5,70.5 C 187.573,72.0269 186.906,73.0269 185.5,73.5C 185.427,71.9731 186.094,70.9731 187.5,70.5 Z"/></g>
<g><path style="opacity:0.824" fill="#726e69" d="M 312.5,71.5 C 314.729,74.3538 316.062,77.6871 316.5,81.5C 315.043,79.7582 313.876,77.7582 313,75.5C 312.51,74.2068 312.343,72.8734 312.5,71.5 Z"/></g>
<g><path style="opacity:0.004" fill="#fefffe" d="M 487.5,76.5 C 488.833,77.1667 488.833,77.1667 487.5,76.5 Z"/></g>
<g><path style="opacity:0.004" fill="#fefffe" d="M 387.5,78.5 C 388.833,79.1667 388.833,79.1667 387.5,78.5 Z"/></g>
<g><path style="opacity:1" fill="#1e1d1b" d="M 194.5,96.5 C 205.307,90.5958 215.64,91.2624 225.5,98.5C 227.97,102.11 229.304,106.11 229.5,110.5C 227.359,120.522 224.859,130.522 222,140.5C 221.176,143.882 221.343,147.216 222.5,150.5C 223.607,151.022 224.774,151.355 226,151.5C 229.926,150.727 233.759,149.727 237.5,148.5C 240.135,147.461 242.135,145.794 243.5,143.5C 247.778,147.659 247.111,151.159 241.5,154C 245.303,156.071 248.97,158.404 252.5,161C 255.77,162.66 259.103,162.994 262.5,162C 263.935,164.267 263.602,166.267 261.5,168C 258.448,169.211 255.281,170.045 252,170.5C 244.065,169.521 236.398,167.521 229,164.5C 222.843,167.108 216.51,169.108 210,170.5C 207.815,170.079 205.649,169.579 203.5,169C 202.424,167.274 202.257,165.441 203,163.5C 207.408,161.43 211.575,158.93 215.5,156C 213.504,151.729 213.004,147.229 214,142.5C 216.819,132.558 219.319,122.558 221.5,112.5C 221.81,108.306 220.143,105.139 216.5,103C 208.667,100.569 201.501,101.736 195,106.5C 191.661,123.896 191.827,141.229 195.5,158.5C 194.895,160.026 193.729,161.026 192,161.5C 191.14,156.863 188.307,154.697 183.5,155C 184.833,154.333 184.833,153.667 183.5,153C 181.934,152.7 180.601,153.2 179.5,154.5C 166.076,151.07 158.742,142.403 157.5,128.5C 158.051,123.851 159.385,119.518 161.5,115.5C 162.906,115.027 163.573,114.027 163.5,112.5C 167.455,107.373 171.622,102.373 176,97.5C 178.486,92.5113 180.652,87.5113 182.5,82.5C 183.901,82.0291 185.234,81.3624 186.5,80.5C 183.867,79.1156 183.867,77.7822 186.5,76.5C 187.842,78.0049 189.508,78.6715 191.5,78.5C 192.546,85.1876 193.546,91.1876 194.5,96.5 Z"/></g>
<g><path style="opacity:0.004" fill="#fefffe" d="M 20.5,86.5 C 21.8333,87.1667 21.8333,87.1667 20.5,86.5 Z"/></g>
<g><path style="opacity:0.792" fill="#97938f" d="M 272.5,96.5 C 275.189,97.1894 276.856,98.856 277.5,101.5C 275.451,100.118 273.785,98.4516 272.5,96.5 Z"/></g>
<g><path style="opacity:1" fill="#23201e" d="M 272.5,96.5 C 273.785,98.4516 275.451,100.118 277.5,101.5C 279.574,103.715 279.907,106.215 278.5,109C 275.758,109.295 273.425,108.462 271.5,106.5C 271.167,105.5 270.5,104.833 269.5,104.5C 265.505,102.79 261.339,101.456 257,100.5C 252.701,101.544 248.535,102.878 244.5,104.5C 237.97,101.229 237.97,97.7288 244.5,94C 251.789,91.6687 259.122,91.3353 266.5,93C 268.727,93.941 270.727,95.1077 272.5,96.5 Z"/></g>
<g><path style="opacity:0.004" fill="#d7d2ce" d="M 269.5,104.5 C 270.5,104.833 271.167,105.5 271.5,106.5C 270.167,106.5 269.5,105.833 269.5,104.5 Z"/></g>
<g><path style="opacity:1" fill="#242220" d="M 216.5,118.5 C 215.603,119.598 214.77,119.598 214,118.5C 213.59,119.901 213.09,121.234 212.5,122.5C 209.43,122.632 206.43,122.299 203.5,121.5C 200.197,118.335 199.697,114.668 202,110.5C 209.746,105.174 214.913,107.008 217.5,116C 217.257,116.902 216.923,117.735 216.5,118.5 Z"/></g>
<g><path style="opacity:1" fill="#272422" d="M 254.5,107.5 C 262.982,107.765 266.149,112.099 264,120.5C 258.514,126.08 253.514,125.747 249,119.5C 247.486,113.877 249.319,109.877 254.5,107.5 Z"/></g>
<g><path style="opacity:0.137" fill="#a59b96" d="M 163.5,112.5 C 163.573,114.027 162.906,115.027 161.5,115.5C 161.427,113.973 162.094,112.973 163.5,112.5 Z"/></g>
<g><path style="opacity:0.004" fill="#fefffe" d="M 89.5,117.5 C 90.8333,118.167 90.8333,118.167 89.5,117.5 Z"/></g>
<g><path style="opacity:0.004" fill="#fefffe" d="M 437.5,118.5 C 438.833,119.167 438.833,119.167 437.5,118.5 Z"/></g>
<g><path style="opacity:0.992" fill="#72716a" d="M 216.5,118.5 C 216.167,120.833 214.833,122.167 212.5,122.5C 213.09,121.234 213.59,119.901 214,118.5C 214.77,119.598 215.603,119.598 216.5,118.5 Z"/></g>
<g><path style="opacity:0.098" fill="#bfb8b7" d="M 339.5,117.5 C 340.906,117.973 341.573,118.973 341.5,120.5C 340.094,120.027 339.427,119.027 339.5,117.5 Z"/></g>
<g><path style="opacity:0.508" fill="#7f7a74" d="M 203.5,121.5 C 206.43,122.299 209.43,122.632 212.5,122.5C 210.034,123.634 207.367,123.801 204.5,123C 203.944,122.617 203.611,122.117 203.5,121.5 Z"/></g>
<g><path style="opacity:0.004" fill="#fefffe" d="M 408.5,124.5 C 409.833,125.167 409.833,125.167 408.5,124.5 Z"/></g>
<g><path style="opacity:0.004" fill="#fefffe" d="M 424.5,133.5 C 425.833,134.167 425.833,134.167 424.5,133.5 Z"/></g>
<g><path style="opacity:0.333" fill="#9e9894" d="M 344.5,127.5 C 345.954,130.718 346.621,134.218 346.5,138C 346.496,140.361 346.163,142.527 345.5,144.5C 345.553,138.804 345.22,133.138 344.5,127.5 Z"/></g>
<g><path style="opacity:0.004" fill="#fefffe" d="M 140.5,135.5 C 141.833,136.167 141.833,136.167 140.5,135.5 Z"/></g>
<g><path style="opacity:0.004" fill="#fefffe" d="M 53.5,137.5 C 54.8333,138.167 54.8333,138.167 53.5,137.5 Z"/></g>
<g><path style="opacity:0.004" fill="#fefffe" d="M 353.5,140.5 C 354.833,141.167 354.833,141.167 353.5,140.5 Z"/></g>
<g><path style="opacity:0.004" fill="#fefffe" d="M 493.5,141.5 C 494.833,142.167 494.833,142.167 493.5,141.5 Z"/></g>
<g><path style="opacity:0.455" fill="#918f8b" d="M 243.5,143.5 C 242.135,145.794 240.135,147.461 237.5,148.5C 239.385,146.947 240.385,144.947 240.5,142.5C 241.791,142.263 242.791,142.596 243.5,143.5 Z"/></g>
<g><path style="opacity:0.004" fill="#fefffe" d="M 437.5,153.5 C 438.833,154.167 438.833,154.167 437.5,153.5 Z"/></g>
<g><path style="opacity:0.004" fill="#fefffe" d="M 438.5,183.5 C 439.833,184.167 439.833,184.167 438.5,183.5 Z"/></g>
<g><path style="opacity:0.004" fill="#fefffe" d="M 446.5,183.5 C 447.833,184.167 447.833,184.167 446.5,183.5 Z"/></g>
<g><path style="opacity:0.004" fill="#fefffe" d="M 123.5,185.5 C 124.833,186.167 124.833,186.167 123.5,185.5 Z"/></g>
<g><path style="opacity:0.004" fill="#fefffe" d="M 129.5,186.5 C 130.833,187.167 130.833,187.167 129.5,186.5 Z"/></g>
<g><path style="opacity:0.839" fill="#756a67" d="M 333.5,187.5 C 333.346,189.97 332.346,191.97 330.5,193.5C 330.455,190.923 331.455,188.923 333.5,187.5 Z"/></g>
<g><path style="opacity:1" fill="#262321" d="M 329.5,172.5 C 329.751,174.17 330.418,175.67 331.5,177C 330.551,177.617 329.718,177.451 329,176.5C 328.333,177.5 328.333,178.5 329,179.5C 329.333,179.167 329.667,178.833 330,178.5C 331.063,179.438 332.23,180.438 333.5,181.5C 333.034,179.705 333.034,177.705 333.5,175.5C 334.427,177.113 335.261,178.779 336,180.5C 336.232,179.263 336.732,178.263 337.5,177.5C 337.657,178.873 337.49,180.207 337,181.5C 336.124,183.758 334.957,185.758 333.5,187.5C 331.455,188.923 330.455,190.923 330.5,193.5C 321.603,207.727 311.937,221.394 301.5,234.5C 301.785,232.712 301.452,231.045 300.5,229.5C 297.606,230.909 296.606,230.242 297.5,227.5C 298.167,225.833 298.833,224.167 299.5,222.5C 306.66,212.186 313.827,201.853 321,191.5C 324.438,185.303 327.271,178.969 329.5,172.5 Z"/></g>
<g><path style="opacity:0.004" fill="#fefffe" d="M 26.5,198.5 C 27.8333,199.167 27.8333,199.167 26.5,198.5 Z"/></g>
<g><path style="opacity:0.004" fill="#fefffe" d="M 413.5,204.5 C 414.833,205.167 414.833,205.167 413.5,204.5 Z"/></g>
<g><path style="opacity:0.004" fill="#fefffe" d="M 74.5,209.5 C 75.8333,210.167 75.8333,210.167 74.5,209.5 Z"/></g>
<g><path style="opacity:0.965" fill="#272422" d="M 195.5,158.5 C 199.127,167.099 202.794,175.765 206.5,184.5C 206.427,186.027 207.094,187.027 208.5,187.5C 213.391,196.567 220.558,202.9 230,206.5C 254.97,200.996 273.803,187.329 286.5,165.5C 286.643,168.097 287.477,170.431 289,172.5C 290.188,171.437 290.688,170.103 290.5,168.5C 292.199,168.473 293.533,167.806 294.5,166.5C 290.454,177.733 283.787,187.233 274.5,195C 259.369,206.946 243.036,214.112 225.5,216.5C 222.868,215.466 220.201,214.466 217.5,213.5C 217.5,212.833 217.5,212.167 217.5,211.5C 211.822,206.986 206.989,201.653 203,195.5C 198.434,187.483 194.434,179.15 191,170.5C 175.85,181.982 164.684,196.482 157.5,214C 164.095,213.183 170.762,212.683 177.5,212.5C 174.695,213.319 171.695,213.819 168.5,214C 170.167,214.333 171.833,214.667 173.5,215C 171.136,216.012 169.802,217.345 169.5,219C 170.448,219.483 171.448,219.649 172.5,219.5C 172.5,219.833 172.5,220.167 172.5,220.5C 164.95,221.221 157.617,222.888 150.5,225.5C 148.06,224.726 146.727,223.06 146.5,220.5C 146.886,218.068 147.553,215.734 148.5,213.5C 149.906,213.027 150.573,212.027 150.5,210.5C 153.084,202.664 156.751,195.331 161.5,188.5C 169.649,178.517 178.649,169.351 188.5,161C 187.62,159.644 187.286,158.144 187.5,156.5C 184.505,156.706 181.838,156.04 179.5,154.5C 180.601,153.2 181.934,152.7 183.5,153C 184.833,153.667 184.833,154.333 183.5,155C 188.307,154.697 191.14,156.863 192,161.5C 193.729,161.026 194.895,160.026 195.5,158.5 Z M 217.5,211.5 C 216.221,212.968 214.554,213.635 212.5,213.5C 211.167,213.5 209.833,213.5 208.5,213.5C 202.225,212.066 195.725,211.4 189,211.5C 184.985,211.501 181.151,211.835 177.5,212.5C 170.762,212.683 164.095,213.183 157.5,214C 164.684,196.482 175.85,181.982 191,170.5C 194.434,179.15 198.434,187.483 203,195.5C 206.989,201.653 211.822,206.986 217.5,211.5 Z"/></g>
<g><path style="opacity:0.129" fill="#b5b4af" d="M 206.5,184.5 C 207.906,184.973 208.573,185.973 208.5,187.5C 207.094,187.027 206.427,186.027 206.5,184.5 Z"/></g>
<g><path style="opacity:1" fill="#35312f" d="M 221.5,184.5 C 224.113,183.565 226.779,183.398 229.5,184C 227.709,184.415 226.376,185.415 225.5,187C 228.167,187.667 230.833,187.667 233.5,187C 230.983,183.799 231.483,180.966 235,178.5C 235.667,177.167 235.667,175.833 235,174.5C 232.323,172.959 229.49,171.959 226.5,171.5C 232.176,171.072 237.843,170.905 243.5,171C 245.283,172.067 245.783,173.567 245,175.5C 243.247,176.627 241.413,177.627 239.5,178.5C 238.303,181.934 236.636,185.1 234.5,188C 231.167,188.667 227.833,188.667 224.5,188C 223.29,186.961 222.29,185.794 221.5,184.5 Z"/></g>
<g><path style="opacity:1" fill="#171513" d="M 226.5,171.5 C 229.49,171.959 232.323,172.959 235,174.5C 235.667,175.833 235.667,177.167 235,178.5C 231.483,180.966 230.983,183.799 233.5,187C 230.833,187.667 228.167,187.667 225.5,187C 226.376,185.415 227.709,184.415 229.5,184C 226.779,183.398 224.113,183.565 221.5,184.5C 221.5,183.833 221.5,183.167 221.5,182.5C 221.656,179.934 221.322,177.434 220.5,175C 220.905,174.055 221.572,173.388 222.5,173C 221.5,172.667 220.5,172.333 219.5,172C 221.81,171.503 224.143,171.337 226.5,171.5 Z"/></g>
<g><path style="opacity:1" fill="#413d38" d="M 226.5,171.5 C 224.143,171.337 221.81,171.503 219.5,172C 220.5,172.333 221.5,172.667 222.5,173C 221.572,173.388 220.905,174.055 220.5,175C 221.322,177.434 221.656,179.934 221.5,182.5C 220.916,180.257 219.75,178.257 218,176.5C 217.333,174.833 217.333,173.167 218,171.5C 220.937,170.183 223.77,170.183 226.5,171.5 Z"/></g>
<g><path style="opacity:0.098" fill="#cecbc4" d="M 177.5,212.5 C 181.151,211.835 184.985,211.501 189,211.5C 195.725,211.4 202.225,212.066 208.5,213.5C 198.183,212.774 187.85,212.44 177.5,212.5 Z"/></g>
<g><path style="opacity:0.149" fill="#adaaa7" d="M 150.5,210.5 C 150.573,212.027 149.906,213.027 148.5,213.5C 148.427,211.973 149.094,210.973 150.5,210.5 Z"/></g>
<g><path style="opacity:0.122" fill="#c4b9b8" d="M 217.5,211.5 C 217.5,212.167 217.5,212.833 217.5,213.5C 215.833,214.833 214.167,214.833 212.5,213.5C 214.554,213.635 216.221,212.968 217.5,211.5 Z"/></g>
<g><path style="opacity:1" fill="#181614" d="M 177.5,212.5 C 187.85,212.44 198.183,212.774 208.5,213.5C 209.833,213.5 211.167,213.5 212.5,213.5C 214.167,214.833 215.833,214.833 217.5,213.5C 220.201,214.466 222.868,215.466 225.5,216.5C 225.034,218.201 225.034,219.701 225.5,221C 224.429,221.852 223.429,222.685 222.5,223.5C 219.43,223.632 216.43,223.299 213.5,222.5C 213.44,221.957 213.107,221.624 212.5,221.5C 211.516,224.428 211.183,227.428 211.5,230.5C 209.859,228.797 208.859,226.63 208.5,224C 207.258,223.689 206.258,224.189 205.5,225.5C 204.692,225.192 204.025,224.692 203.5,224C 204.833,222.667 204.833,221.333 203.5,220C 201.866,219.506 200.199,219.34 198.5,219.5C 195.102,219.18 191.768,219.513 188.5,220.5C 188.624,221.107 188.957,221.44 189.5,221.5C 188.891,224.878 190.224,226.878 193.5,227.5C 195.288,228.622 197.288,228.789 199.5,228C 200.756,227.583 201.423,226.75 201.5,225.5C 202.995,225.415 203.995,226.081 204.5,227.5C 203.092,228.243 201.759,229.077 200.5,230C 202.249,232.213 204.249,233.213 206.5,233C 204.881,233.236 203.881,234.069 203.5,235.5C 202.5,235.5 201.5,235.5 200.5,235.5C 198.167,235.5 195.833,235.5 193.5,235.5C 193.333,285.168 193.5,334.834 194,384.5C 194.232,385.737 194.732,386.737 195.5,387.5C 197.821,396.471 201.488,404.805 206.5,412.5C 207.956,415.431 207.123,416.098 204,414.5C 203.333,416.167 203.333,417.833 204,419.5C 204.333,418.833 204.667,418.167 205,417.5C 206.109,420.947 205.109,423.614 202,425.5C 200.086,424.324 200.252,423.324 202.5,422.5C 202.167,422.167 201.833,421.833 201.5,421.5C 199.557,421.535 197.557,421.202 195.5,420.5C 186.876,409.404 181.876,396.738 180.5,382.5C 180.5,328.167 180.5,273.833 180.5,219.5C 177.833,219.5 175.167,219.5 172.5,219.5C 171.448,219.649 170.448,219.483 169.5,219C 169.802,217.345 171.136,216.012 173.5,215C 171.833,214.667 170.167,214.333 168.5,214C 171.695,213.819 174.695,213.319 177.5,212.5 Z M 189.5,221.5 C 192.287,220.523 195.287,220.19 198.5,220.5C 203.5,220.134 204.5,221.8 201.5,225.5C 199.087,227.051 196.421,227.717 193.5,227.5C 191.71,225.728 190.377,223.728 189.5,221.5 Z"/></g>
<g><path style="opacity:0.047" fill="#e0dfd7" d="M 198.5,219.5 C 198.5,219.833 198.5,220.167 198.5,220.5C 195.287,220.19 192.287,220.523 189.5,221.5C 188.957,221.44 188.624,221.107 188.5,220.5C 191.768,219.513 195.102,219.18 198.5,219.5 Z"/></g>
<g><path style="opacity:0.592" fill="#7d7976" d="M 299.5,222.5 C 298.833,224.167 298.167,225.833 297.5,227.5C 296.833,227.5 296.167,227.5 295.5,227.5C 296.124,225.246 297.457,223.579 299.5,222.5 Z"/></g>
<g><path style="opacity:0.592" fill="#94908e" d="M 189.5,221.5 C 190.377,223.728 191.71,225.728 193.5,227.5C 190.224,226.878 188.891,224.878 189.5,221.5 Z"/></g>
<g><path style="opacity:0.247" fill="#837f7a" d="M 201.5,225.5 C 201.423,226.75 200.756,227.583 199.5,228C 197.288,228.789 195.288,228.622 193.5,227.5C 196.421,227.717 199.087,227.051 201.5,225.5 Z"/></g>
<g><path style="opacity:0.004" fill="#fefffe" d="M 32.5,229.5 C 33.8333,230.167 33.8333,230.167 32.5,229.5 Z"/></g>
<g><path style="opacity:1" fill="#252421" d="M 325.5,381.5 C 324.176,384.148 322.843,386.814 321.5,389.5C 318.621,387.559 315.788,388.226 313,391.5C 311.798,389.323 311.298,386.989 311.5,384.5C 311.333,336.832 311.5,289.166 312,241.5C 313.399,235.938 316.899,234.105 322.5,236C 324.049,237.214 325.215,238.714 326,240.5C 326.832,287.668 326.665,334.668 325.5,381.5 Z"/></g>
<g><path style="opacity:0.004" fill="#fefffe" d="M 490.5,245.5 C 491.833,246.167 491.833,246.167 490.5,245.5 Z"/></g>
<g><path style="opacity:0.004" fill="#fefffe" d="M 230.5,246.5 C 231.833,247.167 231.833,247.167 230.5,246.5 Z"/></g>
<g><path style="opacity:0.004" fill="#fefffe" d="M 223.5,250.5 C 224.833,251.167 224.833,251.167 223.5,250.5 Z"/></g>
<g><path style="opacity:0.004" fill="#fefffe" d="M 485.5,254.5 C 486.833,255.167 486.833,255.167 485.5,254.5 Z"/></g>
<g><path style="opacity:0.004" fill="#fefffe" d="M 411.5,255.5 C 412.833,256.167 412.833,256.167 411.5,255.5 Z"/></g>
<g><path style="opacity:0.004" fill="#fefffe" d="M 144.5,270.5 C 145.833,271.167 145.833,271.167 144.5,270.5 Z"/></g>
<g><path style="opacity:1" fill="#22201e" d="M 225.5,216.5 C 247.583,219.231 268.249,225.898 287.5,236.5C 289.507,234.467 291.507,232.467 293.5,230.5C 294.906,230.027 295.573,229.027 295.5,227.5C 296.167,227.5 296.833,227.5 297.5,227.5C 296.606,230.242 297.606,230.909 300.5,229.5C 301.452,231.045 301.785,232.712 301.5,234.5C 300.585,236.754 299.252,238.754 297.5,240.5C 296.667,276.829 296.167,313.162 296,349.5C 295.065,357.682 292.231,365.016 287.5,371.5C 286.118,372.801 284.452,373.634 282.5,374C 283.252,374.671 283.586,375.504 283.5,376.5C 272.573,387.751 259.239,391.917 243.5,389C 219.325,381.522 207.825,365.022 209,339.5C 208.333,313.833 208.333,288.167 209,262.5C 209.391,257.944 211.891,255.61 216.5,255.5C 219.037,255.435 221.037,256.435 222.5,258.5C 223.333,289.495 223.833,320.495 224,351.5C 227.652,365.323 236.485,373.323 250.5,375.5C 251.793,376.158 253.293,376.492 255,376.5C 257.821,376.592 260.321,375.926 262.5,374.5C 272.878,370.283 279.044,362.616 281,351.5C 281.5,315.835 281.667,280.168 281.5,244.5C 281.027,243.094 280.027,242.427 278.5,242.5C 272.117,238.977 265.451,235.977 258.5,233.5C 257.558,233.608 256.725,233.941 256,234.5C 251.175,245.334 243.342,248.501 232.5,244C 230.622,242.457 229.122,240.624 228,238.5C 226.992,240.259 225.492,241.426 223.5,242C 220.167,242.667 216.833,242.667 213.5,242C 209.903,240.048 206.569,237.881 203.5,235.5C 203.881,234.069 204.881,233.236 206.5,233C 204.249,233.213 202.249,232.213 200.5,230C 201.759,229.077 203.092,228.243 204.5,227.5C 203.995,226.081 202.995,225.415 201.5,225.5C 204.5,221.8 203.5,220.134 198.5,220.5C 198.5,220.167 198.5,219.833 198.5,219.5C 200.199,219.34 201.866,219.506 203.5,220C 204.833,221.333 204.833,222.667 203.5,224C 204.025,224.692 204.692,225.192 205.5,225.5C 206.258,224.189 207.258,223.689 208.5,224C 208.859,226.63 209.859,228.797 211.5,230.5C 211.5,231.167 211.833,231.5 212.5,231.5C 215.518,234.97 218.852,235.304 222.5,232.5C 223.965,230.401 225.299,228.234 226.5,226C 225.644,224.405 224.311,223.572 222.5,223.5C 223.429,222.685 224.429,221.852 225.5,221C 225.034,219.701 225.034,218.201 225.5,216.5 Z M 244.5,228.5 C 245.609,229.29 246.942,229.79 248.5,230C 247.663,231.011 247.33,232.178 247.5,233.5C 238.193,240.515 234.36,238.181 236,226.5C 238.778,227.325 241.611,227.992 244.5,228.5 Z M 213.5,222.5 C 216.43,223.299 219.43,223.632 222.5,223.5C 224.311,223.572 225.644,224.405 226.5,226C 225.299,228.234 223.965,230.401 222.5,232.5C 218.852,235.304 215.518,234.97 212.5,231.5C 212.19,228.287 212.523,225.287 213.5,222.5 Z"/></g>
<g><path style="opacity:0.184" fill="#a6a29e" d="M 278.5,242.5 C 280.027,242.427 281.027,243.094 281.5,244.5C 279.973,244.573 278.973,243.906 278.5,242.5 Z"/></g>
<g><path style="opacity:0.004" fill="#fefffe" d="M 257.5,237.5 C 258.833,238.167 258.833,238.167 257.5,237.5 Z"/></g>
<g><path style="opacity:0.247" fill="#aca7a5" d="M 295.5,227.5 C 295.573,229.027 294.906,230.027 293.5,230.5C 293.427,228.973 294.094,227.973 295.5,227.5 Z"/></g>
<g><path style="opacity:0.306" fill="#7f7772" d="M 244.5,228.5 C 246.167,228.5 247.833,228.5 249.5,228.5C 249.598,230.553 248.931,232.22 247.5,233.5C 247.33,232.178 247.663,231.011 248.5,230C 246.942,229.79 245.609,229.29 244.5,228.5 Z"/></g>
<g><path style="opacity:0.114" fill="#bcb6b2" d="M 213.5,222.5 C 212.523,225.287 212.19,228.287 212.5,231.5C 211.833,231.5 211.5,231.167 211.5,230.5C 211.183,227.428 211.516,224.428 212.5,221.5C 213.107,221.624 213.44,221.957 213.5,222.5 Z"/></g>
<g><path style="opacity:0.004" fill="#fefffe" d="M 202.5,272.5 C 203.833,273.167 203.833,273.167 202.5,272.5 Z"/></g>
<g><path style="opacity:0.004" fill="#fefffe" d="M 32.5,280.5 C 33.8333,281.167 33.8333,281.167 32.5,280.5 Z"/></g>
<g><path style="opacity:0.004" fill="#fefffe" d="M 255.5,283.5 C 256.833,284.167 256.833,284.167 255.5,283.5 Z"/></g>
<g><path style="opacity:0.004" fill="#fefffe" d="M 239.5,290.5 C 240.833,291.167 240.833,291.167 239.5,290.5 Z"/></g>
<g><path style="opacity:0.004" fill="#fefffe" d="M 110.5,295.5 C 111.833,296.167 111.833,296.167 110.5,295.5 Z"/></g>
<g><path style="opacity:0.004" fill="#fefffe" d="M 405.5,295.5 C 406.833,296.167 406.833,296.167 405.5,295.5 Z"/></g>
<g><path style="opacity:0.004" fill="#fefffe" d="M 330.5,302.5 C 331.833,303.167 331.833,303.167 330.5,302.5 Z"/></g>
<g><path style="opacity:0.342" fill="#837e7a" d="M 172.5,220.5 C 172.5,220.167 172.5,219.833 172.5,219.5C 175.167,219.5 177.833,219.5 180.5,219.5C 180.5,273.833 180.5,328.167 180.5,382.5C 179.501,328.669 179.168,274.669 179.5,220.5C 177.167,220.5 174.833,220.5 172.5,220.5 Z"/></g>
<g><path style="opacity:0.004" fill="#fefffe" d="M 394.5,307.5 C 395.833,308.167 395.833,308.167 394.5,307.5 Z"/></g>
<g><path style="opacity:0.004" fill="#fefffe" d="M 406.5,308.5 C 407.833,309.167 407.833,309.167 406.5,308.5 Z"/></g>
<g><path style="opacity:0.004" fill="#fefffe" d="M 63.5,320.5 C 64.8333,321.167 64.8333,321.167 63.5,320.5 Z"/></g>
<g><path style="opacity:0.004" fill="#fefffe" d="M 105.5,321.5 C 106.833,322.167 106.833,322.167 105.5,321.5 Z"/></g>
<g><path style="opacity:0.004" fill="#fefffe" d="M 400.5,323.5 C 401.833,324.167 401.833,324.167 400.5,323.5 Z"/></g>
<g><path style="opacity:0.224" fill="#6b6662" d="M 200.5,235.5 C 198.735,236.461 196.735,236.795 194.5,236.5C 194.185,286.857 194.518,337.19 195.5,387.5C 194.732,386.737 194.232,385.737 194,384.5C 193.5,334.834 193.333,285.168 193.5,235.5C 195.833,235.5 198.167,235.5 200.5,235.5 Z"/></g>
<g><path style="opacity:0.004" fill="#fefffe" d="M 492.5,372.5 C 493.833,373.167 493.833,373.167 492.5,372.5 Z"/></g>
<g><path style="opacity:1" fill="#706d68" d="M 287.5,371.5 C 286.92,373.749 285.587,375.415 283.5,376.5C 283.586,375.504 283.252,374.671 282.5,374C 284.452,373.634 286.118,372.801 287.5,371.5 Z"/></g>
<g><path style="opacity:0.471" fill="#89837d" d="M 262.5,374.5 C 260.321,375.926 257.821,376.592 255,376.5C 253.293,376.492 251.793,376.158 250.5,375.5C 254.534,375.495 258.534,375.162 262.5,374.5 Z"/></g>
<g><path style="opacity:0.004" fill="#fefffe" d="M 308.5,385.5 C 309.833,386.167 309.833,386.167 308.5,385.5 Z"/></g>
<g><path style="opacity:0.039" fill="#cdc9c7" d="M 308.5,397.5 C 308.573,399.027 307.906,400.027 306.5,400.5C 306.427,398.973 307.094,397.973 308.5,397.5 Z"/></g>
<g><path style="opacity:0.004" fill="#fefffe" d="M 384.5,401.5 C 385.833,402.167 385.833,402.167 384.5,401.5 Z"/></g>
<g><path style="opacity:0.004" fill="#fefffe" d="M 130.5,431.5 C 131.833,432.167 131.833,432.167 130.5,431.5 Z"/></g>
<g><path style="opacity:0.004" fill="#fefffe" d="M 129.5,437.5 C 130.833,438.167 130.833,438.167 129.5,437.5 Z"/></g>
<g><path style="opacity:0.004" fill="#fefffe" d="M 172.5,437.5 C 173.833,438.167 173.833,438.167 172.5,437.5 Z"/></g>
<g><path style="opacity:0.998" fill="#1f1d1b" d="M 325.5,381.5 C 322.774,410.382 308.44,431.215 282.5,444C 280.564,444.813 278.564,445.313 276.5,445.5C 274.447,445.402 272.78,446.069 271.5,447.5C 243.945,453.656 220.111,446.99 200,427.5C 198.25,425.266 196.75,422.932 195.5,420.5C 197.557,421.202 199.557,421.535 201.5,421.5C 201.833,421.833 202.167,422.167 202.5,422.5C 200.252,423.324 200.086,424.324 202,425.5C 205.109,423.614 206.109,420.947 205,417.5C 204.667,418.167 204.333,418.833 204,419.5C 203.333,417.833 203.333,416.167 204,414.5C 207.123,416.098 207.956,415.431 206.5,412.5C 217.31,425.907 231.31,433.573 248.5,435.5C 253.65,436.651 258.984,436.817 264.5,436C 265.416,435.722 266.082,435.222 266.5,434.5C 284.985,429.357 298.318,418.024 306.5,400.5C 307.906,400.027 308.573,399.027 308.5,397.5C 309.598,393.089 310.598,388.755 311.5,384.5C 311.298,386.989 311.798,389.323 313,391.5C 315.788,388.226 318.621,387.559 321.5,389.5C 322.843,386.814 324.176,384.148 325.5,381.5 Z"/></g>
<g><path style="opacity:0.755" fill="#706a67" d="M 266.5,434.5 C 266.082,435.222 265.416,435.722 264.5,436C 258.984,436.817 253.65,436.651 248.5,435.5C 254.545,435.697 260.545,435.363 266.5,434.5 Z"/></g>
<g><path style="opacity:0.165" fill="#a6a19f" d="M 276.5,445.5 C 275.22,446.931 273.553,447.598 271.5,447.5C 272.78,446.069 274.447,445.402 276.5,445.5 Z"/></g>
<g><path style="opacity:0.004" fill="#fefffe" d="M 496.5,448.5 C 497.833,449.167 497.833,449.167 496.5,448.5 Z"/></g>
<g><path style="opacity:0.004" fill="#fefffe" d="M 485.5,449.5 C 486.833,450.167 486.833,450.167 485.5,449.5 Z"/></g>
<g><path style="opacity:0.004" fill="#fefffe" d="M 295.5,468.5 C 296.833,469.167 296.833,469.167 295.5,468.5 Z"/></g>
<g><path style="opacity:0.004" fill="#fefffe" d="M 31.5,477.5 C 32.8333,478.167 32.8333,478.167 31.5,477.5 Z"/></g>
<g><path style="opacity:0.004" fill="#fefffe" d="M 78.5,478.5 C 79.8333,479.167 79.8333,479.167 78.5,478.5 Z"/></g>
<g><path style="opacity:0.004" fill="#fefffe" d="M 135.5,485.5 C 136.833,486.167 136.833,486.167 135.5,485.5 Z"/></g>
<g><path style="opacity:0.004" fill="#fefffe" d="M 67.5,492.5 C 68.8333,493.167 68.8333,493.167 67.5,492.5 Z"/></g>
<g><path style="opacity:0.004" fill="#fefffe" d="M 11.5,495.5 C 12.8333,496.167 12.8333,496.167 11.5,495.5 Z"/></g>
</svg>
